<svg id="Layer_1" data-name="Layer 1" xmlns="http://www.w3.org/2000/svg" viewBox="0 0 192.15 119.73"><defs><style>.cls-1,.cls-2,.cls-3{fill:#3182ce;}.cls-2,.cls-3{stroke:#3182ce;stroke-miterlimit:10;}.cls-2{stroke-width:0.75px;}</style></defs><title>logo</title><path class="cls-1" d="M102.49,44.23,37.8,43.59S7.05,45.51,14.74,71.78c0,0,4.48,11.53,23.7,10.24l35.23.64s10.89,5.13-2.56,9.61l-51.89-.64L3.85,108.93l64.69.64s32-3.85,28.83-27.55c0,0-5.13-18.57-33.95-11.53H35.23s-8.32-10.24,6.41-10.24l44.84-.65Z" transform="translate(-3.85 -16)"/><path class="cls-1" d="M102.81,51s7.69-16,18.58-5.77L157.26,83l7-40.35h11.53L157.9,109.25,117.54,67l-6.4,41-17.3.64Z" transform="translate(-3.85 -16)"/><path class="cls-1" d="M163.66,27.9s10.89-.81,14.42,15c0,0-4.81,43.32-47.08,67,0,0-17.94,11.53-32,9.61,0,0-9.61-1.93-11.53-10.89l-5.13,2.56S78.47,122.7,86.8,131c0,0,13.45,13.45,43.56-5.13,0,0,7-1.92,23.7-17.29,0,0,13.45,7.68,18.57-10.25l2.56-14.73s22.42-25.63,12.17-48C187.36,35.58,182.88,23.41,163.66,27.9Z" transform="translate(-3.85 -16)"/><path class="cls-1" d="M125.87,40.07s58.29-40.36,68.54,0c0,0,10.89-27.55-24.34-23.7C170.07,16.37,152.78,16.37,125.87,40.07Z" transform="translate(-3.85 -16)"/><rect class="cls-2" x="164.15" y="27" width="10.5" height="35"/><rect class="cls-3" x="30.65" y="53.5" width="39" height="3"/><rect class="cls-3" x="28.65" y="76.5" width="39" height="3"/><rect class="cls-3" x="35.5" y="78.5" width="39" height="3" transform="translate(-0.8 -18.01) rotate(2.15)"/></svg>